<svg xmlns="http://www.w3.org/2000/svg" viewBox="0 0 701 495" width="701" height="495">
	<defs>
		<clipPath clipPathUnits="userSpaceOnUse" id="cp1">
			<path d="M-1052 -361L868 -361L868 659L-1052 659Z" />
		</clipPath>
		<linearGradient id="grd1" gradientUnits="userSpaceOnUse"  x1="80.065" y1="228.181" x2="80.065" y2="377.566">
			<stop offset="0" stop-color="#b6df64"  />
			<stop offset="1" stop-color="#76b249"  />
		</linearGradient>
		<linearGradient id="grd2" gradientUnits="userSpaceOnUse"  x1="83.117" y1="228.181" x2="83.117" y2="377.566">
			<stop offset="0" stop-color="#b6df64"  />
			<stop offset="1" stop-color="#76b249"  />
		</linearGradient>
		<linearGradient id="grd3" gradientUnits="userSpaceOnUse"  x1="121.181" y1="217.467" x2="121.181" y2="393.06">
			<stop offset="0" stop-color="#b6df64"  />
			<stop offset="1" stop-color="#76b249"  />
		</linearGradient>
		<linearGradient id="grd4" gradientUnits="userSpaceOnUse"  x1="120.32" y1="217.615" x2="120.32" y2="387.555">
			<stop offset="0" stop-color="#b6df64"  />
			<stop offset="1" stop-color="#76b249"  />
		</linearGradient>
		<linearGradient id="grd5" gradientUnits="userSpaceOnUse"  x1="149.76" y1="259.398" x2="149.76" y2="386.667">
			<stop offset="0" stop-color="#b6df64"  />
			<stop offset="1" stop-color="#76b249"  />
		</linearGradient>
		<linearGradient id="grd6" gradientUnits="userSpaceOnUse"  x1="151.08" y1="259.398" x2="151.08" y2="385.566">
			<stop offset="0" stop-color="#b6df64"  />
			<stop offset="1" stop-color="#76b249"  />
		</linearGradient>
		<linearGradient id="grd7" gradientUnits="userSpaceOnUse"  x1="46.026" y1="291.275" x2="46.026" y2="394.187">
			<stop offset="0" stop-color="#b6df64"  />
			<stop offset="1" stop-color="#76b249"  />
		</linearGradient>
		<linearGradient id="grd8" gradientUnits="userSpaceOnUse"  x1="41.65" y1="291.275" x2="41.65" y2="363.552">
			<stop offset="0" stop-color="#b6df64"  />
			<stop offset="1" stop-color="#76b249"  />
		</linearGradient>
	</defs>
	<style>
		tspan { white-space:pre }
		.shp0 { fill: #407bff } 
		.shp1 { fill: #000000 } 
		.shp2 { fill: #ffffff } 
		.shp3 { fill: #f0f0f0 } 
		.shp4 { fill: #263238 } 
		.shp5 { fill: #4f7f65 } 
		.shp6 { fill: url(#grd1) } 
		.shp7 { fill: url(#grd2) } 
		.shp8 { fill: url(#grd3) } 
		.shp9 { fill: url(#grd4) } 
		.shp10 { fill: url(#grd5) } 
		.shp11 { fill: url(#grd6) } 
		.shp12 { fill: url(#grd7) } 
		.shp13 { fill: url(#grd8) } 
		.shp14 { fill: #5285d4 } 
		.shp15 { fill: #336bc2 } 
		.shp16 { fill: #49c5b6 } 
		.shp17 { fill: #ffa683 } 
		.shp18 { fill: #e6e1ef } 
		.shp19 { opacity: 0.42;fill: #49c5b6 } 
		.shp20 { opacity: 0.349;fill: #441982 } 
		.shp21 { fill: #3d5baf } 
		.shp22 { fill: #1b1464 } 
		.shp23 { fill: #473e54 } 
		.shp24 { fill: #f48260 } 
		.shp25 { fill: #441982 } 
		.shp26 { fill: #76a3c4 } 
		.shp27 { fill: #ba95f4 } 
		.shp28 { fill: #24b09f } 
	</style>
	<g id="about us" clip-path="url(#cp1)">
		<g id="about us">
			<g id="Group 1698" style="opacity: 0.188">
				<g id="Group 1683">
					<g id="Group 1635">
						<g id="Group 1632">
							<g id="Group 1631">
								<path id="Path 4742" class="shp0" d="M73.41 229.02L76.48 233L217.56 233L220.67 229.02L73.41 229.02Z" />
							</g>
						</g>
						<g id="Group 1634" style="opacity: 0.4">
							<g id="Group 1633">
								<path id="Path 4743" class="shp1" d="M73.41 229.02L76.48 233L217.56 233L220.67 229.02L73.41 229.02Z" />
							</g>
						</g>
					</g>
					<g id="Group 1638">
						<g id="Group 1636">
							<path id="Rectangle 61" class="shp0" d="M76.2 223.89L217.6 223.89L217.6 474.55L76.2 474.55L76.2 223.89Z" />
						</g>
						<g id="Group 1637" style="opacity: 0.4">
							<path id="Path 4786" class="shp2" d="M76.2 223.89L217.6 223.89L217.6 474.55L76.26 469.43L76.2 223.89Z" />
						</g>
					</g>
					<g id="Group 1666" style="opacity: 0.8">
						<g id="Group 1639">
							<path id="Path 4744" class="shp3" d="M81.93 230.06C82.09 231.69 80.96 233 79.4 233C77.83 233 76.43 231.69 76.25 230.06C76.07 228.42 77.2 227.09 78.78 227.09C80.36 227.09 81.77 228.42 81.93 230.06Z" />
						</g>
						<g id="Group 1640">
							<path id="Path 4745" class="shp3" d="M87.13 230.06C87.28 231.69 86.14 233 84.58 233C83.02 233 81.62 231.69 81.45 230.06C81.29 228.42 82.43 227.09 84.01 227.09C85.58 227.09 86.98 228.42 87.13 230.06Z" />
						</g>
						<g id="Group 1641">
							<path id="Path 4746" class="shp3" d="M92.34 230.06C92.48 231.69 91.32 233 89.76 233C88.2 233 86.81 231.69 86.66 230.06C86.51 228.42 87.66 227.09 89.24 227.09C90.81 227.09 92.2 228.42 92.34 230.06Z" />
						</g>
						<g id="Group 1642">
							<path id="Path 4747" class="shp3" d="M97.54 230.06C97.67 231.69 96.5 233 94.94 233C93.38 233 92 231.69 91.86 230.06C91.72 228.42 92.89 227.09 94.47 227.09C96.04 227.09 97.42 228.42 97.54 230.06Z" />
						</g>
						<g id="Group 1643">
							<path id="Path 4748" class="shp3" d="M102.75 230.06C102.86 231.69 101.68 233 100.12 233C98.56 233 97.19 231.69 97.07 230.06C96.94 228.42 98.12 227.09 99.69 227.09C101.27 227.09 102.64 228.42 102.75 230.06Z" />
						</g>
						<g id="Group 1644">
							<path id="Path 4749" class="shp3" d="M107.95 230.06C108.05 231.69 106.87 233 105.3 233C103.74 233 102.39 231.69 102.27 230.06C102.16 228.42 103.35 227.09 104.92 227.09C106.5 227.09 107.86 228.42 107.95 230.06Z" />
						</g>
						<g id="Group 1645">
							<path id="Path 4750" class="shp3" d="M113.16 230.06C113.24 231.69 112.05 233 110.49 233C108.92 233 107.58 231.69 107.48 230.06C107.38 228.42 108.58 227.09 110.15 227.09C111.73 227.09 113.07 228.42 113.16 230.06Z" />
						</g>
						<g id="Group 1646">
							<path id="Path 4751" class="shp3" d="M118.36 230.06C118.44 231.69 117.23 233 115.67 233C114.11 233 112.77 231.69 112.68 230.06C112.6 228.42 113.8 227.09 115.38 227.09C116.96 227.09 118.29 228.42 118.36 230.06Z" />
						</g>
						<g id="Group 1647">
							<path id="Path 4752" class="shp3" d="M123.57 230.06C123.63 231.69 122.41 233 120.85 233C119.29 233 117.96 231.69 117.89 230.06C117.82 228.42 119.03 227.09 120.61 227.09C122.18 227.09 123.51 228.42 123.57 230.06Z" />
						</g>
						<g id="Group 1648">
							<path id="Path 4753" class="shp3" d="M128.77 230.06C128.82 231.69 127.59 233 126.03 233C124.47 233 123.15 231.69 123.09 230.06C123.03 228.42 124.26 227.09 125.84 227.09C127.41 227.09 128.73 228.42 128.77 230.06Z" />
						</g>
						<g id="Group 1649">
							<path id="Path 4754" class="shp3" d="M133.98 230.06C134.01 231.69 132.77 233 131.21 233C129.65 233 128.35 231.69 128.3 230.06C128.25 228.42 129.49 227.09 131.07 227.09C132.64 227.09 133.95 228.42 133.98 230.06Z" />
						</g>
						<g id="Group 1650">
							<path id="Path 4755" class="shp3" d="M139.18 230.06C139.2 231.69 137.96 233 136.39 233C134.83 233 133.54 231.69 133.5 230.06C133.47 228.42 134.72 227.09 136.29 227.09C137.87 227.09 139.16 228.42 139.18 230.06Z" />
						</g>
						<g id="Group 1651">
							<path id="Path 4756" class="shp3" d="M144.39 230.06C144.4 231.69 143.14 233 141.57 233C140.01 233 138.73 231.69 138.71 230.06C138.69 228.42 139.95 227.09 141.52 227.09C143.1 227.09 144.38 228.42 144.39 230.06Z" />
						</g>
						<g id="Group 1652">
							<path id="Path 4757" class="shp3" d="M149.59 230.06C149.59 231.69 148.32 233 146.76 233C145.19 233 143.92 231.69 143.91 230.06C143.9 228.42 145.18 227.09 146.75 227.09C148.33 227.09 149.6 228.42 149.59 230.06Z" />
						</g>
						<g id="Group 1653">
							<path id="Path 4758" class="shp3" d="M154.8 230.06C154.78 231.69 153.5 233 151.94 233C150.38 233 149.11 231.69 149.12 230.06C149.12 228.42 150.4 227.09 151.98 227.09C153.56 227.09 154.82 228.42 154.8 230.06Z" />
						</g>
						<g id="Group 1654">
							<path id="Path 4759" class="shp3" d="M160 230.06C159.97 231.69 158.68 233 157.12 233C155.56 233 154.31 231.69 154.32 230.06C154.34 228.42 155.63 227.09 157.21 227.09C158.78 227.09 160.04 228.42 160 230.06Z" />
						</g>
						<g id="Group 1655">
							<path id="Path 4760" class="shp3" d="M165.21 230.06C165.16 231.69 163.86 233 162.3 233C160.74 233 159.5 231.69 159.53 230.06C159.56 228.42 160.86 227.09 162.44 227.09C164.01 227.09 165.25 228.42 165.21 230.06Z" />
						</g>
						<g id="Group 1656">
							<path id="Path 4761" class="shp3" d="M170.41 230.06C170.36 231.69 169.04 233 167.48 233C165.92 233 164.69 231.69 164.73 230.06C164.78 228.42 166.09 227.09 167.67 227.09C169.24 227.09 170.47 228.42 170.41 230.06Z" />
						</g>
						<g id="Group 1657">
							<path id="Path 4762" class="shp3" d="M175.62 230.06C175.55 231.69 174.22 233 172.66 233C171.1 233 169.88 231.69 169.94 230.06C170 228.42 171.32 227.09 172.89 227.09C174.47 227.09 175.69 228.42 175.62 230.06Z" />
						</g>
						<g id="Group 1658">
							<path id="Path 4763" class="shp3" d="M180.82 230.06C180.74 231.69 179.41 233 177.85 233C176.28 233 175.07 231.69 175.14 230.06C175.21 228.42 176.55 227.09 178.12 227.09C179.7 227.09 180.91 228.42 180.82 230.06Z" />
						</g>
						<g id="Group 1659">
							<path id="Path 4764" class="shp3" d="M186.03 230.06C185.93 231.69 184.59 233 183.03 233C181.46 233 180.27 231.69 180.35 230.06C180.43 228.42 181.78 227.09 183.35 227.09C184.93 227.09 186.13 228.42 186.03 230.06Z" />
						</g>
						<g id="Group 1660">
							<path id="Path 4765" class="shp3" d="M191.23 230.06C191.12 231.69 189.77 233 188.21 233C186.65 233 185.46 231.69 185.55 230.06C185.65 228.42 187 227.09 188.58 227.09C190.16 227.09 191.34 228.42 191.23 230.06Z" />
						</g>
						<g id="Group 1661">
							<path id="Path 4766" class="shp3" d="M196.44 230.06C196.32 231.69 194.95 233 193.39 233C191.83 233 190.65 231.69 190.76 230.06C190.87 228.42 192.23 227.09 193.81 227.09C195.39 227.09 196.56 228.42 196.44 230.06Z" />
						</g>
						<g id="Group 1662">
							<path id="Path 4767" class="shp3" d="M201.64 230.06C201.51 231.69 200.13 233 198.57 233C197.01 233 195.84 231.69 195.96 230.06C196.08 228.42 197.46 227.09 199.04 227.09C200.61 227.09 201.78 228.42 201.64 230.06Z" />
						</g>
						<g id="Group 1663">
							<path id="Path 4768" class="shp3" d="M206.85 230.06C206.7 231.69 205.31 233 203.75 233C202.19 233 201.03 231.69 201.17 230.06C201.3 228.42 202.69 227.09 204.27 227.09C205.84 227.09 207 228.42 206.85 230.06Z" />
						</g>
						<g id="Group 1664">
							<path id="Path 4769" class="shp3" d="M212.05 230.06C211.89 231.69 210.49 233 208.93 233C207.37 233 206.23 231.69 206.37 230.06C206.52 228.42 207.92 227.09 209.49 227.09C211.07 227.09 212.22 228.42 212.05 230.06Z" />
						</g>
						<g id="Group 1665">
							<path id="Path 4770" class="shp3" d="M217.26 230.06C217.08 231.69 215.68 233 214.12 233C212.55 233 211.42 231.69 211.58 230.06C211.74 228.42 213.15 227.09 214.72 227.09C216.3 227.09 217.43 228.42 217.26 230.06Z" />
						</g>
					</g>
					<g id="Group 1667">
						<path id="Path 4771" class="shp0" d="M73.4 224.99L220.67 224.99L220.67 229.02L73.41 229.02L73.4 224.99Z" />
					</g>
					<g id="Group 1670">
						<g id="Group 1668">
							<path id="Path 4772" class="shp0" d="M73.39 220.96L76.46 224.99L217.58 224.99L220.68 220.96L73.39 220.96Z" />
						</g>
						<g id="Group 1669" style="opacity: 0.4">
							<path id="Path 4773" class="shp1" d="M73.39 220.96L76.46 224.99L217.58 224.99L220.68 220.96L73.39 220.96Z" />
						</g>
					</g>
					<g id="Group 1671">
						<path id="Path 4774" class="shp0" d="M73.37 216.92L220.69 216.92L220.68 220.96L73.39 220.96L73.37 216.92Z" />
					</g>
					<g id="Group 1672">
						<path id="Path 4775" class="shp0" d="M76.45 220.96L217.59 220.96L217.58 224.99L76.46 224.99L76.45 220.96Z" />
					</g>
					<g id="Group 1673" style="opacity: 0.8">
						<path id="Path 4776" class="shp2" d="M76.45 220.96L217.59 220.96L217.58 224.99L76.46 224.99L76.45 220.96Z" />
					</g>
					<g id="Group 1674" style="opacity: 0.698">
						<path id="Rectangle 63" class="shp2" d="M76.24 304.32L217.63 304.32L217.63 306.09L76.24 306.09L76.24 304.32Z" />
					</g>
					<g id="Group 1675" style="opacity: 0.8">
						<path id="Rectangle 64" class="shp2" d="M76.53 392.42L217.63 392.42L217.63 394.19L76.53 394.19L76.53 392.42Z" />
					</g>
					<g id="Group 1682">
						<g id="Group 1676">
							<path id="Rectangle 65" class="shp0" d="M105.54 240.72L123.02 240.72L123.02 259.6L105.54 259.6L105.54 240.72Z" />
							<path id="Rectangle 66" class="shp0" d="M139.12 240.72L156.59 240.72L156.59 259.6L139.12 259.6L139.12 240.72Z" />
							<path id="Rectangle 67" class="shp0" d="M172.69 240.72L190.16 240.72L190.16 259.6L172.69 259.6L172.69 240.72Z" />
						</g>
						<g id="Group 1677">
							<path id="Rectangle 68" class="shp0" d="M105.54 268.99L123.02 268.99L123.02 287.87L105.54 287.87L105.54 268.99Z" />
							<path id="Rectangle 69" class="shp0" d="M139.12 268.99L156.59 268.99L156.59 287.87L139.12 287.87L139.12 268.99Z" />
							<path id="Rectangle 70" class="shp0" d="M172.69 268.99L190.16 268.99L190.16 287.87L172.69 287.87L172.69 268.99Z" />
						</g>
						<g id="Group 1679">
							<g id="Group 1678">
								<path id="Rectangle 71" class="shp0" d="M105.54 406.02L123.02 406.02L123.02 424.9L105.54 424.9L105.54 406.02Z" />
								<path id="Rectangle 72" class="shp0" d="M139.12 406.02L156.59 406.02L156.59 424.9L139.12 424.9L139.12 406.02Z" />
								<path id="Rectangle 73" class="shp0" d="M172.69 406.02L190.16 406.02L190.16 424.9L172.69 424.9L172.69 406.02Z" />
							</g>
							<path id="Rectangle 74" class="shp0" d="M86.82 445.78L104.3 445.78L104.3 464.66L86.82 464.66L86.82 445.78Z" />
							<path id="Rectangle 75" class="shp0" d="M189.52 445.78L207 445.78L207 464.66L189.52 464.66L189.52 445.78Z" />
						</g>
						<g id="Group 1680">
							<path id="Rectangle 76" class="shp0" d="M105.54 320.97L123.02 320.97L123.02 339.85L105.54 339.85L105.54 320.97Z" />
							<path id="Rectangle 77" class="shp0" d="M139.12 320.97L156.59 320.97L156.59 339.85L139.12 339.85L139.12 320.97Z" />
							<path id="Rectangle 78" class="shp0" d="M172.69 320.97L190.16 320.97L190.16 339.85L172.69 339.85L172.69 320.97Z" />
						</g>
						<g id="Group 1681">
							<path id="Rectangle 79" class="shp0" d="M105.54 349.24L123.02 349.24L123.02 368.12L105.54 368.12L105.54 349.24Z" />
							<path id="Rectangle 80" class="shp0" d="M139.12 349.24L156.59 349.24L156.59 368.12L139.12 368.12L139.12 349.24Z" />
							<path id="Rectangle 81" class="shp0" d="M172.69 349.24L190.16 349.24L190.16 368.12L172.69 368.12L172.69 349.24Z" />
						</g>
					</g>
				</g>
				<g id="Group 1694">
					<g id="Group 1684" style="opacity: 0.8">
						<path id="Path 4777" class="shp2" d="M126.68 447.99L144.77 447.99L144.7 466.78L126.55 466.78L126.68 447.99Z" />
					</g>
					<g id="Group 1685" style="opacity: 0.8">
						<path id="Path 4778" class="shp2" d="M148.26 447.99L167.1 447.99L166.21 466.78L148.06 466.78L148.26 447.99Z" />
					</g>
					<g id="Group 1688">
						<g id="Group 1687">
							<path id="Path 4779" class="shp0" d="M169.98 470.56L122.25 470.56L122.05 466.78L170.16 466.78L169.98 470.56Z" />
							<g id="Group 1686" style="opacity: 0.102">
								<path id="Path 4780" class="shp2" d="M169.98 470.56L122.25 470.56L122.05 466.78L170.16 466.78L169.98 470.56Z" />
							</g>
						</g>
					</g>
					<g id="Group 1689">
						<path id="Path 4781" class="shp0" d="M171.9 474.55L120.56 474.55L120.35 470.83L172.09 470.83L171.9 474.55Z" />
					</g>
					<g id="Group 1690" style="opacity: 0.4">
						<path id="Path 4782" class="shp2" d="M173.6 441.34L118.72 441.34L118.49 437.08L173.82 437.08L173.6 441.34Z" />
					</g>
					<g id="Group 1691">
						<path id="Path 4783" class="shp4" d="M118.72 441.34L126.68 447.99L167.1 447.99L173.6 441.34L118.72 441.34Z" />
					</g>
					<g id="Group 1692">
						<path id="Path 4784" class="shp0" d="M122.45 444.45L125.25 466.78L127.48 466.78L126.58 444.45L126.58 444.45C125.3 443.78 123.67 443.78 122.45 444.45L122.45 444.45Z" />
					</g>
					<g id="Group 1693">
						<path id="Path 4785" class="shp0" d="M170.66 444.45L167.91 466.78L165.68 466.78L166.52 444.45L166.52 444.45C167.75 443.62 169.5 443.62 170.66 444.45L170.66 444.45Z" />
					</g>
				</g>
			</g>
			<path id="Path 4620" class="shp5" d="M361.5 465C549 465 701 471.72 701 480C701 488.28 549 495 361.5 495C174 495 22 488.28 22 480C22 471.72 174 465 361.5 465Z" />
			<g id="Group 1696" style="opacity: 0.188">
				<g id="Group 1683">
					<g id="Group 1635">
						<g id="Group 1632">
							<g id="Group 1631">
								<path id="Path 4742" class="shp0" d="M220.43 22.71L225.97 29.88L480.1 29.88L485.69 22.71L220.43 22.71Z" />
							</g>
						</g>
						<g id="Group 1634" style="opacity: 0.4">
							<g id="Group 1633">
								<path id="Path 4743" class="shp1" d="M220.43 22.71L225.97 29.88L480.1 29.88L485.69 22.71L220.43 22.71Z" />
							</g>
						</g>
					</g>
					<g id="Group 1638">
						<g id="Group 1636">
							<path id="Rectangle 61" class="shp0" d="M225.46 13.47L480.17 13.47L480.17 465L225.46 465L225.46 13.47Z" />
						</g>
						<g id="Group 1637" style="opacity: 0.4">
							<path id="Rectangle 62" class="shp2" d="M225.46 13.47L480.17 13.47L480.17 465L225.46 465L225.46 13.47Z" />
						</g>
					</g>
					<g id="Group 1666" style="opacity: 0.8">
						<g id="Group 1639">
							<path id="Path 4744" class="shp3" d="M235.78 24.59C236.08 27.53 234.03 29.89 231.22 29.89C228.41 29.89 225.87 27.53 225.55 24.59C225.23 21.64 227.27 19.24 230.11 19.24C232.95 19.24 235.49 21.64 235.78 24.59Z" />
						</g>
						<g id="Group 1640">
							<path id="Path 4745" class="shp3" d="M245.16 24.59C245.43 27.53 243.37 29.89 240.55 29.89C237.74 29.89 235.22 27.53 234.93 24.59C234.63 21.64 236.69 19.24 239.53 19.24C242.37 19.24 244.89 21.64 245.16 24.59Z" />
						</g>
						<g id="Group 1641">
							<path id="Path 4746" class="shp3" d="M254.54 24.59C254.78 27.53 252.7 29.89 249.89 29.89C247.07 29.89 244.58 27.53 244.3 24.59C244.03 21.64 246.11 19.24 248.95 19.24C251.79 19.24 254.29 21.64 254.54 24.59Z" />
						</g>
						<g id="Group 1642">
							<path id="Path 4747" class="shp3" d="M263.91 24.59C264.13 27.53 262.03 29.89 259.22 29.89C256.41 29.89 253.93 27.53 253.68 24.59C253.43 21.64 255.53 19.24 258.36 19.24C261.2 19.24 263.69 21.64 263.91 24.59Z" />
						</g>
						<g id="Group 1643">
							<path id="Path 4748" class="shp3" d="M273.29 24.59C273.49 27.53 271.37 29.89 268.55 29.89C265.74 29.89 263.28 27.53 263.05 24.59C262.83 21.64 264.94 19.24 267.78 19.24C270.62 19.24 273.09 21.64 273.29 24.59Z" />
						</g>
						<g id="Group 1644">
							<path id="Path 4749" class="shp3" d="M282.66 24.59C282.84 27.53 280.7 29.89 277.89 29.89C275.08 29.89 272.63 27.53 272.43 24.59C272.23 21.64 274.36 19.24 277.2 19.24C280.04 19.24 282.48 21.64 282.66 24.59Z" />
						</g>
						<g id="Group 1645">
							<path id="Path 4750" class="shp3" d="M292.04 24.59C292.19 27.53 290.04 29.89 287.22 29.89C284.41 29.89 281.99 27.53 281.81 24.59C281.63 21.64 283.78 19.24 286.62 19.24C289.46 19.24 291.88 21.64 292.04 24.59Z" />
						</g>
						<g id="Group 1646">
							<path id="Path 4751" class="shp3" d="M301.41 24.59C301.54 27.53 299.37 29.89 296.56 29.89C293.74 29.89 291.34 27.53 291.18 24.59C291.03 21.64 293.2 19.24 296.04 19.24C298.88 19.24 301.28 21.64 301.41 24.59Z" />
						</g>
						<g id="Group 1647">
							<path id="Path 4752" class="shp3" d="M310.79 24.59C310.9 27.53 308.7 29.89 305.89 29.89C303.08 29.89 300.69 27.53 300.56 24.59C300.43 21.64 302.62 19.24 305.46 19.24C308.29 19.24 310.68 21.64 310.79 24.59Z" />
						</g>
						<g id="Group 1648">
							<path id="Path 4753" class="shp3" d="M320.16 24.59C320.25 27.53 318.04 29.89 315.22 29.89C312.41 29.89 310.04 27.53 309.93 24.59C309.83 21.64 312.04 19.24 314.87 19.24C317.71 19.24 320.08 21.64 320.16 24.59Z" />
						</g>
						<g id="Group 1649">
							<path id="Path 4754" class="shp3" d="M329.54 24.59C329.6 27.53 327.37 29.89 324.56 29.89C321.74 29.89 319.39 27.53 319.31 24.59C319.22 21.64 321.45 19.24 324.29 19.24C327.13 19.24 329.48 21.64 329.54 24.59Z" />
						</g>
						<g id="Group 1650">
							<path id="Path 4755" class="shp3" d="M338.92 24.59C338.95 27.53 336.7 29.89 333.89 29.89C331.08 29.89 328.75 27.53 328.68 24.59C328.62 21.64 330.87 19.24 333.71 19.24C336.55 19.24 338.88 21.64 338.92 24.59Z" />
						</g>
						<g id="Group 1651">
							<path id="Path 4756" class="shp3" d="M348.29 24.59C348.31 27.53 346.04 29.89 343.22 29.89C340.41 29.89 338.1 27.53 338.06 24.59C338.02 21.64 340.29 19.24 343.13 19.24C345.97 19.24 348.28 21.64 348.29 24.59Z" />
						</g>
						<g id="Group 1652">
							<path id="Path 4757" class="shp3" d="M357.67 24.59C357.66 27.53 355.37 29.89 352.56 29.89C349.74 29.89 347.45 27.53 347.43 24.59C347.42 21.64 349.71 19.24 352.55 19.24C355.39 19.24 357.68 21.64 357.67 24.59Z" />
						</g>
						<g id="Group 1653">
							<path id="Path 4758" class="shp3" d="M367.04 24.59C367.01 27.53 364.7 29.89 361.89 29.89C359.08 29.89 356.8 27.53 356.81 24.59C356.82 21.64 359.13 19.24 361.97 19.24C364.81 19.24 367.08 21.64 367.04 24.59Z" />
						</g>
						<g id="Group 1654">
							<path id="Path 4759" class="shp3" d="M376.42 24.59C376.36 27.53 374.03 29.89 371.22 29.89C368.41 29.89 366.15 27.53 366.19 24.59C366.22 21.64 368.55 19.24 371.39 19.24C374.22 19.24 376.48 21.64 376.42 24.59Z" />
						</g>
						<g id="Group 1655">
							<path id="Path 4760" class="shp3" d="M385.79 24.59C385.71 27.53 383.37 29.89 380.56 29.89C377.74 29.89 375.51 27.53 375.56 24.59C375.62 21.64 377.96 19.24 380.8 19.24C383.64 19.24 385.88 21.64 385.79 24.59Z" />
						</g>
						<g id="Group 1656">
							<path id="Path 4761" class="shp3" d="M395.17 24.59C395.07 27.53 392.7 29.89 389.89 29.89C387.08 29.89 384.86 27.53 384.94 24.59C385.02 21.64 387.38 19.24 390.22 19.24C393.06 19.24 395.28 21.64 395.17 24.59Z" />
						</g>
						<g id="Group 1657">
							<path id="Path 4762" class="shp3" d="M404.55 24.59C404.42 27.53 402.04 29.89 399.22 29.89C396.41 29.89 394.21 27.53 394.31 24.59C394.42 21.64 396.8 19.24 399.64 19.24C402.48 19.24 404.67 21.64 404.55 24.59Z" />
						</g>
						<g id="Group 1658">
							<path id="Path 4763" class="shp3" d="M413.92 24.59C413.77 27.53 411.37 29.89 408.56 29.89C405.74 29.89 403.56 27.53 403.69 24.59C403.82 21.64 406.22 19.24 409.06 19.24C411.9 19.24 414.07 21.64 413.92 24.59Z" />
						</g>
						<g id="Group 1659">
							<path id="Path 4764" class="shp3" d="M423.3 24.59C423.12 27.53 420.7 29.89 417.89 29.89C415.08 29.89 412.92 27.53 413.07 24.59C413.22 21.64 415.64 19.24 418.48 19.24C421.32 19.24 423.47 21.64 423.3 24.59Z" />
						</g>
						<g id="Group 1660">
							<path id="Path 4765" class="shp3" d="M432.67 24.59C432.48 27.53 430.04 29.89 427.22 29.89C424.41 29.89 422.27 27.53 422.44 24.59C422.61 21.64 425.06 19.24 427.9 19.24C430.73 19.24 432.87 21.64 432.67 24.59Z" />
						</g>
						<g id="Group 1661">
							<path id="Path 4766" class="shp3" d="M442.05 24.59C441.83 27.53 439.37 29.89 436.56 29.89C433.74 29.89 431.62 27.53 431.82 24.59C432.01 21.64 434.48 19.24 437.31 19.24C440.15 19.24 442.27 21.64 442.05 24.59Z" />
						</g>
						<g id="Group 1662">
							<path id="Path 4767" class="shp3" d="M451.43 24.59C451.18 27.53 448.7 29.89 445.89 29.89C443.08 29.89 440.97 27.53 441.19 24.59C441.41 21.64 443.89 19.24 446.73 19.24C449.57 19.24 451.67 21.64 451.43 24.59Z" />
						</g>
						<g id="Group 1663">
							<path id="Path 4768" class="shp3" d="M460.8 24.59C460.53 27.53 458.04 29.89 455.22 29.89C452.41 29.89 450.33 27.53 450.57 24.59C450.81 21.64 453.31 19.24 456.15 19.24C458.99 19.24 461.07 21.64 460.8 24.59Z" />
						</g>
						<g id="Group 1664">
							<path id="Path 4769" class="shp3" d="M470.18 24.59C469.89 27.53 467.37 29.89 464.56 29.89C461.74 29.89 459.68 27.53 459.94 24.59C460.21 21.64 462.73 19.24 465.57 19.24C468.41 19.24 470.47 21.64 470.18 24.59Z" />
						</g>
						<g id="Group 1665">
							<path id="Path 4770" class="shp3" d="M479.55 24.59C479.24 27.53 476.7 29.89 473.89 29.89C471.08 29.89 469.03 27.53 469.32 24.59C469.61 21.64 472.15 19.24 474.99 19.24C477.82 19.24 479.87 21.64 479.55 24.59Z" />
						</g>
					</g>
					<g id="Group 1667">
						<path id="Path 4771" class="shp0" d="M220.41 15.46L485.71 15.46L485.69 22.71L220.43 22.71L220.41 15.46Z" />
					</g>
					<g id="Group 1670">
						<g id="Group 1668">
							<path id="Path 4772" class="shp0" d="M220.39 8.2L225.94 15.46L480.13 15.46L485.72 8.2L220.39 8.2Z" />
						</g>
						<g id="Group 1669" style="opacity: 0.4">
							<path id="Path 4773" class="shp1" d="M220.39 8.2L225.94 15.46L480.13 15.46L485.72 8.2L220.39 8.2Z" />
						</g>
					</g>
					<g id="Group 1671">
						<path id="Path 4774" class="shp0" d="M220.37 0.92L485.74 0.92L485.72 8.2L220.39 8.2L220.37 0.92Z" />
					</g>
					<g id="Group 1672">
						<path id="Path 4775" class="shp0" d="M225.92 8.2L480.15 8.2L480.13 15.46L225.94 15.46L225.92 8.2Z" />
					</g>
					<g id="Group 1673" style="opacity: 0.8">
						<path id="Path 4776" class="shp2" d="M225.92 8.2L480.15 8.2L480.13 15.46L225.94 15.46L225.92 8.2Z" />
					</g>
					<g id="Group 1674" style="opacity: 0.698">
						<path id="Rectangle 63" class="shp2" d="M225.53 158.35L480.22 158.35L480.22 161.55L225.53 161.55L225.53 158.35Z" />
					</g>
					<g id="Group 1675" style="opacity: 0.8">
						<path id="Rectangle 64" class="shp2" d="M226.06 317.05L480.22 317.05L480.22 320.24L226.06 320.24L226.06 317.05Z" />
					</g>
					<g id="Group 1682">
						<g id="Group 1676">
							<path id="Rectangle 65" class="shp0" d="M278.32 43.78L309.81 43.78L309.81 77.8L278.32 77.8L278.32 43.78Z" />
							<path id="Rectangle 66" class="shp0" d="M338.79 43.78L370.28 43.78L370.28 77.8L338.79 77.8L338.79 43.78Z" />
							<path id="Rectangle 67" class="shp0" d="M399.27 43.78L430.75 43.78L430.75 77.8L399.27 77.8L399.27 43.78Z" />
						</g>
						<g id="Group 1677">
							<path id="Rectangle 68" class="shp0" d="M278.32 94.71L309.81 94.71L309.81 128.73L278.32 128.73L278.32 94.71Z" />
							<path id="Rectangle 69" class="shp0" d="M338.79 94.71L370.28 94.71L370.28 128.73L338.79 128.73L338.79 94.71Z" />
							<path id="Rectangle 70" class="shp0" d="M399.27 94.71L430.75 94.71L430.75 128.73L399.27 128.73L399.27 94.71Z" />
						</g>
						<g id="Group 1679">
							<g id="Group 1678">
								<path id="Rectangle 71" class="shp0" d="M278.32 341.55L309.81 341.55L309.81 375.56L278.32 375.56L278.32 341.55Z" />
								<path id="Rectangle 72" class="shp0" d="M338.79 341.55L370.28 341.55L370.28 375.56L338.79 375.56L338.79 341.55Z" />
								<path id="Rectangle 73" class="shp0" d="M399.27 341.55L430.75 341.55L430.75 375.56L399.27 375.56L399.27 341.55Z" />
							</g>
							<path id="Rectangle 74" class="shp0" d="M244.59 413.16L276.07 413.16L276.07 447.17L244.59 447.17L244.59 413.16Z" />
							<path id="Rectangle 75" class="shp0" d="M429.58 413.16L461.07 413.16L461.07 447.17L429.58 447.17L429.58 413.16Z" />
						</g>
						<g id="Group 1680">
							<path id="Rectangle 76" class="shp0" d="M278.32 188.34L309.81 188.34L309.81 222.35L278.32 222.35L278.32 188.34Z" />
							<path id="Rectangle 77" class="shp0" d="M338.79 188.34L370.28 188.34L370.28 222.35L338.79 222.35L338.79 188.34Z" />
							<path id="Rectangle 78" class="shp0" d="M399.27 188.34L430.75 188.34L430.75 222.35L399.27 222.35L399.27 188.34Z" />
						</g>
						<g id="Group 1681">
							<path id="Rectangle 79" class="shp0" d="M278.32 239.27L309.81 239.27L309.81 273.28L278.32 273.28L278.32 239.27Z" />
							<path id="Rectangle 80" class="shp0" d="M338.79 239.27L370.28 239.27L370.28 273.28L338.79 273.28L338.79 239.27Z" />
							<path id="Rectangle 81" class="shp0" d="M399.27 239.27L430.75 239.27L430.75 273.28L399.27 273.28L399.27 239.27Z" />
						</g>
					</g>
				</g>
				<g id="Group 1694">
					<g id="Group 1684" style="opacity: 0.8">
						<path id="Path 4777" class="shp2" d="M316.39 417.15L348.97 417.15L348.85 450.99L316.17 450.99L316.39 417.15Z" />
					</g>
					<g id="Group 1685" style="opacity: 0.8">
						<path id="Path 4778" class="shp2" d="M355.27 417.15L389.2 417.15L387.6 450.99L354.91 450.99L355.27 417.15Z" />
					</g>
					<g id="Group 1688">
						<g id="Group 1687">
							<path id="Path 4779" class="shp0" d="M394.39 457.81L308.41 457.81L308.06 450.99L394.71 450.99L394.39 457.81Z" />
							<g id="Group 1686" style="opacity: 0.102">
								<path id="Path 4780" class="shp2" d="M394.39 457.81L308.41 457.81L308.06 450.99L394.71 450.99L394.39 457.81Z" />
							</g>
						</g>
					</g>
					<g id="Group 1689">
						<path id="Path 4781" class="shp0" d="M397.86 465L305.36 465L304.99 458.29L398.2 458.29L397.86 465Z" />
					</g>
					<g id="Group 1690" style="opacity: 0.4">
						<path id="Path 4782" class="shp2" d="M400.92 405.17L302.06 405.17L301.64 397.5L401.31 397.5L400.92 405.17Z" />
					</g>
					<g id="Group 1691">
						<path id="Path 4783" class="shp4" d="M302.06 405.17L316.39 417.15L389.2 417.15L400.92 405.17L302.06 405.17Z" />
					</g>
					<g id="Group 1692">
						<path id="Path 4784" class="shp0" d="M308.77 410.78L313.82 450.99L317.84 450.99L316.22 410.78L316.22 410.78C313.9 409.56 310.97 409.56 308.77 410.78L308.77 410.78Z" />
					</g>
					<g id="Group 1693">
						<path id="Path 4785" class="shp0" d="M395.62 410.78L390.67 450.99L386.65 450.99L388.16 410.78L388.16 410.78C390.37 409.29 393.53 409.29 395.62 410.78L395.62 410.78Z" />
					</g>
				</g>
			</g>
			<g id="Group 1697" style="opacity: 0.188">
				<g id="Group 1683">
					<g id="Group 1635">
						<g id="Group 1632">
							<g id="Group 1631">
								<path id="Path 4742" class="shp0" d="M491.41 226.02L494.48 230L635.56 230L638.67 226.02L491.41 226.02Z" />
							</g>
						</g>
						<g id="Group 1634" style="opacity: 0.4">
							<g id="Group 1633">
								<path id="Path 4743" class="shp1" d="M491.41 226.02L494.48 230L635.56 230L638.67 226.02L491.41 226.02Z" />
							</g>
						</g>
					</g>
					<g id="Group 1638">
						<g id="Group 1636">
							<path id="Rectangle 61" class="shp0" d="M494.2 220.89L635.6 220.89L635.6 471.55L494.2 471.55L494.2 220.89Z" />
						</g>
						<g id="Group 1637" style="opacity: 0.4">
							<path id="Path 4786" class="shp2" d="M494.2 220.89L635.6 220.89L635.6 471.55L494.26 466.43L494.2 220.89Z" />
						</g>
					</g>
					<g id="Group 1666" style="opacity: 0.8">
						<g id="Group 1639">
							<path id="Path 4744" class="shp3" d="M499.93 227.06C500.09 228.69 498.96 230 497.4 230C495.83 230 494.43 228.69 494.25 227.06C494.07 225.42 495.2 224.09 496.78 224.09C498.36 224.09 499.77 225.42 499.93 227.06Z" />
						</g>
						<g id="Group 1640">
							<path id="Path 4745" class="shp3" d="M505.13 227.06C505.28 228.69 504.14 230 502.58 230C501.02 230 499.62 228.69 499.45 227.06C499.29 225.42 500.43 224.09 502.01 224.09C503.58 224.09 504.98 225.42 505.13 227.06Z" />
						</g>
						<g id="Group 1641">
							<path id="Path 4746" class="shp3" d="M510.34 227.06C510.48 228.69 509.32 230 507.76 230C506.2 230 504.81 228.69 504.66 227.06C504.51 225.42 505.66 224.09 507.24 224.09C508.81 224.09 510.2 225.42 510.34 227.06Z" />
						</g>
						<g id="Group 1642">
							<path id="Path 4747" class="shp3" d="M515.54 227.06C515.67 228.69 514.5 230 512.94 230C511.38 230 510 228.69 509.86 227.06C509.72 225.42 510.89 224.09 512.47 224.09C514.04 224.09 515.42 225.42 515.54 227.06Z" />
						</g>
						<g id="Group 1643">
							<path id="Path 4748" class="shp3" d="M520.75 227.06C520.86 228.69 519.68 230 518.12 230C516.56 230 515.19 228.69 515.07 227.06C514.94 225.42 516.12 224.09 517.69 224.09C519.27 224.09 520.64 225.42 520.75 227.06Z" />
						</g>
						<g id="Group 1644">
							<path id="Path 4749" class="shp3" d="M525.95 227.06C526.05 228.69 524.87 230 523.3 230C521.74 230 520.39 228.69 520.27 227.06C520.16 225.42 521.35 224.09 522.92 224.09C524.5 224.09 525.86 225.42 525.95 227.06Z" />
						</g>
						<g id="Group 1645">
							<path id="Path 4750" class="shp3" d="M531.16 227.06C531.24 228.69 530.05 230 528.49 230C526.92 230 525.58 228.69 525.48 227.06C525.38 225.42 526.58 224.09 528.15 224.09C529.73 224.09 531.07 225.42 531.16 227.06Z" />
						</g>
						<g id="Group 1646">
							<path id="Path 4751" class="shp3" d="M536.36 227.06C536.44 228.69 535.23 230 533.67 230C532.1 230 530.77 228.69 530.68 227.06C530.6 225.42 531.8 224.09 533.38 224.09C534.96 224.09 536.29 225.42 536.36 227.06Z" />
						</g>
						<g id="Group 1647">
							<path id="Path 4752" class="shp3" d="M541.57 227.06C541.63 228.69 540.41 230 538.85 230C537.29 230 535.96 228.69 535.89 227.06C535.82 225.42 537.03 224.09 538.61 224.09C540.18 224.09 541.51 225.42 541.57 227.06Z" />
						</g>
						<g id="Group 1648">
							<path id="Path 4753" class="shp3" d="M546.77 227.06C546.82 228.69 545.59 230 544.03 230C542.47 230 541.15 228.69 541.09 227.06C541.03 225.42 542.26 224.09 543.84 224.09C545.41 224.09 546.73 225.42 546.77 227.06Z" />
						</g>
						<g id="Group 1649">
							<path id="Path 4754" class="shp3" d="M551.98 227.06C552.01 228.69 550.77 230 549.21 230C547.65 230 546.35 228.69 546.3 227.06C546.25 225.42 547.49 224.09 549.07 224.09C550.64 224.09 551.95 225.42 551.98 227.06Z" />
						</g>
						<g id="Group 1650">
							<path id="Path 4755" class="shp3" d="M557.18 227.06C557.2 228.69 555.95 230 554.39 230C552.83 230 551.54 228.69 551.5 227.06C551.47 225.42 552.72 224.09 554.29 224.09C555.87 224.09 557.16 225.42 557.18 227.06Z" />
						</g>
						<g id="Group 1651">
							<path id="Path 4756" class="shp3" d="M562.39 227.06C562.4 228.69 561.14 230 559.57 230C558.01 230 556.73 228.69 556.71 227.06C556.69 225.42 557.95 224.09 559.52 224.09C561.1 224.09 562.38 225.42 562.39 227.06Z" />
						</g>
						<g id="Group 1652">
							<path id="Path 4757" class="shp3" d="M567.59 227.06C567.59 228.69 566.32 230 564.76 230C563.19 230 561.92 228.69 561.91 227.06C561.9 225.42 563.18 224.09 564.75 224.09C566.33 224.09 567.6 225.42 567.59 227.06Z" />
						</g>
						<g id="Group 1653">
							<path id="Path 4758" class="shp3" d="M572.8 227.06C572.78 228.69 571.5 230 569.94 230C568.38 230 567.11 228.69 567.12 227.06C567.12 225.42 568.4 224.09 569.98 224.09C571.56 224.09 572.82 225.42 572.8 227.06Z" />
						</g>
						<g id="Group 1654">
							<path id="Path 4759" class="shp3" d="M578 227.06C577.97 228.69 576.68 230 575.12 230C573.56 230 572.3 228.69 572.32 227.06C572.34 225.42 573.63 224.09 575.21 224.09C576.78 224.09 578.04 225.42 578 227.06Z" />
						</g>
						<g id="Group 1655">
							<path id="Path 4760" class="shp3" d="M583.21 227.06C583.16 228.69 581.86 230 580.3 230C578.74 230 577.5 228.69 577.53 227.06C577.56 225.42 578.86 224.09 580.44 224.09C582.01 224.09 583.25 225.42 583.21 227.06Z" />
						</g>
						<g id="Group 1656">
							<path id="Path 4761" class="shp3" d="M588.41 227.06C588.36 228.69 587.04 230 585.48 230C583.92 230 582.69 228.69 582.73 227.06C582.78 225.42 584.09 224.09 585.67 224.09C587.24 224.09 588.47 225.42 588.41 227.06Z" />
						</g>
						<g id="Group 1657">
							<path id="Path 4762" class="shp3" d="M593.62 227.06C593.55 228.69 592.22 230 590.66 230C589.1 230 587.88 228.69 587.94 227.06C588 225.42 589.32 224.09 590.89 224.09C592.47 224.09 593.69 225.42 593.62 227.06Z" />
						</g>
						<g id="Group 1658">
							<path id="Path 4763" class="shp3" d="M598.82 227.06C598.74 228.69 597.41 230 595.85 230C594.28 230 593.07 228.69 593.14 227.06C593.21 225.42 594.55 224.09 596.12 224.09C597.7 224.09 598.91 225.42 598.82 227.06Z" />
						</g>
						<g id="Group 1659">
							<path id="Path 4764" class="shp3" d="M604.03 227.06C603.93 228.69 602.59 230 601.03 230C599.47 230 598.26 228.69 598.35 227.06C598.43 225.42 599.78 224.09 601.35 224.09C602.93 224.09 604.13 225.42 604.03 227.06Z" />
						</g>
						<g id="Group 1660">
							<path id="Path 4765" class="shp3" d="M609.23 227.06C609.12 228.69 607.77 230 606.21 230C604.65 230 603.46 228.69 603.55 227.06C603.65 225.42 605 224.09 606.58 224.09C608.16 224.09 609.34 225.42 609.23 227.06Z" />
						</g>
						<g id="Group 1661">
							<path id="Path 4766" class="shp3" d="M614.44 227.06C614.32 228.69 612.95 230 611.39 230C609.83 230 608.65 228.69 608.76 227.06C608.87 225.42 610.23 224.09 611.81 224.09C613.39 224.09 614.56 225.42 614.44 227.06Z" />
						</g>
						<g id="Group 1662">
							<path id="Path 4767" class="shp3" d="M619.64 227.06C619.51 228.69 618.13 230 616.57 230C615.01 230 613.84 228.69 613.96 227.06C614.08 225.42 615.46 224.09 617.04 224.09C618.61 224.09 619.78 225.42 619.64 227.06Z" />
						</g>
						<g id="Group 1663">
							<path id="Path 4768" class="shp3" d="M624.85 227.06C624.7 228.69 623.31 230 621.75 230C620.19 230 619.03 228.69 619.17 227.06C619.3 225.42 620.69 224.09 622.27 224.09C623.84 224.09 625 225.42 624.85 227.06Z" />
						</g>
						<g id="Group 1664">
							<path id="Path 4769" class="shp3" d="M630.05 227.06C629.89 228.69 628.49 230 626.93 230C625.37 230 624.22 228.69 624.37 227.06C624.52 225.42 625.92 224.09 627.49 224.09C629.07 224.09 630.22 225.42 630.05 227.06Z" />
						</g>
						<g id="Group 1665">
							<path id="Path 4770" class="shp3" d="M635.26 227.06C635.08 228.69 633.68 230 632.12 230C630.55 230 629.42 228.69 629.58 227.06C629.74 225.42 631.15 224.09 632.72 224.09C634.3 224.09 635.43 225.42 635.26 227.06Z" />
						</g>
					</g>
					<g id="Group 1667">
						<path id="Path 4771" class="shp0" d="M491.4 221.99L638.67 221.99L638.67 226.02L491.41 226.02L491.4 221.99Z" />
					</g>
					<g id="Group 1670">
						<g id="Group 1668">
							<path id="Path 4772" class="shp0" d="M491.39 217.96L494.46 221.99L635.58 221.99L638.68 217.96L491.39 217.96Z" />
						</g>
						<g id="Group 1669" style="opacity: 0.4">
							<path id="Path 4773" class="shp1" d="M491.39 217.96L494.46 221.99L635.58 221.99L638.68 217.96L491.39 217.96Z" />
						</g>
					</g>
					<g id="Group 1671">
						<path id="Path 4774" class="shp0" d="M491.37 213.92L638.69 213.92L638.68 217.96L491.39 217.96L491.37 213.92Z" />
					</g>
					<g id="Group 1672">
						<path id="Path 4775" class="shp0" d="M494.45 217.96L635.59 217.96L635.58 221.99L494.46 221.99L494.45 217.96Z" />
					</g>
					<g id="Group 1673" style="opacity: 0.8">
						<path id="Path 4776" class="shp2" d="M494.45 217.96L635.59 217.96L635.58 221.99L494.46 221.99L494.45 217.96Z" />
					</g>
					<g id="Group 1674" style="opacity: 0.698">
						<path id="Rectangle 63" class="shp2" d="M494.23 301.32L635.63 301.32L635.63 303.09L494.23 303.09L494.23 301.32Z" />
					</g>
					<g id="Group 1675" style="opacity: 0.8">
						<path id="Rectangle 64" class="shp2" d="M494.53 389.42L635.63 389.42L635.63 391.19L494.53 391.19L494.53 389.42Z" />
					</g>
					<g id="Group 1682">
						<g id="Group 1676">
							<path id="Rectangle 65" class="shp0" d="M523.55 237.72L541.02 237.72L541.02 256.6L523.55 256.6L523.55 237.72Z" />
							<path id="Rectangle 66" class="shp0" d="M557.12 237.72L574.59 237.72L574.59 256.6L557.12 256.6L557.12 237.72Z" />
							<path id="Rectangle 67" class="shp0" d="M590.69 237.72L608.16 237.72L608.16 256.6L590.69 256.6L590.69 237.72Z" />
						</g>
						<g id="Group 1677">
							<path id="Rectangle 68" class="shp0" d="M523.55 265.99L541.02 265.99L541.02 284.87L523.55 284.87L523.55 265.99Z" />
							<path id="Rectangle 69" class="shp0" d="M557.12 265.99L574.59 265.99L574.59 284.87L557.12 284.87L557.12 265.99Z" />
							<path id="Rectangle 70" class="shp0" d="M590.69 265.99L608.16 265.99L608.16 284.87L590.69 284.87L590.69 265.99Z" />
						</g>
						<g id="Group 1679">
							<g id="Group 1678">
								<path id="Rectangle 71" class="shp0" d="M523.55 403.02L541.02 403.02L541.02 421.9L523.55 421.9L523.55 403.02Z" />
								<path id="Rectangle 72" class="shp0" d="M557.12 403.02L574.59 403.02L574.59 421.9L557.12 421.9L557.12 403.02Z" />
								<path id="Rectangle 73" class="shp0" d="M590.69 403.02L608.16 403.02L608.16 421.9L590.69 421.9L590.69 403.02Z" />
							</g>
							<path id="Rectangle 74" class="shp0" d="M504.82 442.78L522.3 442.78L522.3 461.66L504.82 461.66L504.82 442.78Z" />
							<path id="Rectangle 75" class="shp0" d="M607.52 442.78L625 442.78L625 461.66L607.52 461.66L607.52 442.78Z" />
						</g>
						<g id="Group 1680">
							<path id="Rectangle 76" class="shp0" d="M523.55 317.97L541.02 317.97L541.02 336.85L523.55 336.85L523.55 317.97Z" />
							<path id="Rectangle 77" class="shp0" d="M557.12 317.97L574.59 317.97L574.59 336.85L557.12 336.85L557.12 317.97Z" />
							<path id="Rectangle 78" class="shp0" d="M590.69 317.97L608.16 317.97L608.16 336.85L590.69 336.85L590.69 317.97Z" />
						</g>
						<g id="Group 1681">
							<path id="Rectangle 79" class="shp0" d="M523.55 346.24L541.02 346.24L541.02 365.12L523.55 365.12L523.55 346.24Z" />
							<path id="Rectangle 80" class="shp0" d="M557.12 346.24L574.59 346.24L574.59 365.12L557.12 365.12L557.12 346.24Z" />
							<path id="Rectangle 81" class="shp0" d="M590.69 346.24L608.16 346.24L608.16 365.12L590.69 365.12L590.69 346.24Z" />
						</g>
					</g>
				</g>
				<g id="Group 1694">
					<g id="Group 1684" style="opacity: 0.8">
						<path id="Path 4777" class="shp2" d="M544.68 444.99L562.77 444.99L562.7 463.78L544.55 463.78L544.68 444.99Z" />
					</g>
					<g id="Group 1685" style="opacity: 0.8">
						<path id="Path 4778" class="shp2" d="M566.26 444.99L585.1 444.99L584.21 463.78L566.06 463.78L566.26 444.99Z" />
					</g>
					<g id="Group 1688">
						<g id="Group 1687">
							<path id="Path 4779" class="shp0" d="M587.98 467.56L540.25 467.56L540.05 463.78L588.16 463.78L587.98 467.56Z" />
							<g id="Group 1686" style="opacity: 0.102">
								<path id="Path 4780" class="shp2" d="M587.98 467.56L540.25 467.56L540.05 463.78L588.16 463.78L587.98 467.56Z" />
							</g>
						</g>
					</g>
					<g id="Group 1689">
						<path id="Path 4781" class="shp0" d="M589.9 471.55L538.56 471.55L538.35 467.83L590.09 467.83L589.9 471.55Z" />
					</g>
					<g id="Group 1690" style="opacity: 0.4">
						<path id="Path 4782" class="shp2" d="M591.6 438.34L536.72 438.34L536.49 434.08L591.82 434.08L591.6 438.34Z" />
					</g>
					<g id="Group 1691">
						<path id="Path 4783" class="shp4" d="M536.72 438.34L544.68 444.99L585.1 444.99L591.6 438.34L536.72 438.34Z" />
					</g>
					<g id="Group 1692">
						<path id="Path 4784" class="shp0" d="M540.45 441.45L543.25 463.78L545.48 463.78L544.58 441.45L544.58 441.45C543.3 440.78 541.67 440.78 540.45 441.45L540.45 441.45Z" />
					</g>
					<g id="Group 1693">
						<path id="Path 4785" class="shp0" d="M588.66 441.45L585.91 463.78L583.68 463.78L584.52 441.45L584.52 441.45C585.75 440.62 587.5 440.62 588.66 441.45L588.66 441.45Z" />
					</g>
				</g>
			</g>
			<g id="Group 1630">
				<g id="Group 1629">
					<g id="Group 1606">
						<g id="Group 1601">
							<path id="Path 4646" class="shp6" d="M100.33 377.16L102.28 377.57C104.56 371.43 106.63 361.96 103.27 352.02C97.54 335.07 94.79 313.72 83.82 297.69C68.84 275.8 65.24 228.18 65.24 228.18C65.24 228.18 47 265.95 59.43 301.56C71.86 337.17 86.57 346.5 94.01 353.45C101.95 360.87 101.79 370.5 100.33 377.16Z" />
							<path id="Path 4647" class="shp7" d="M100.74 377.24L102.28 377.57C104.56 371.43 106.63 361.96 103.27 352.02C97.54 335.07 94.79 313.72 83.82 297.69C68.84 275.8 65.24 228.18 65.24 228.18C65.24 228.18 55.15 279.09 66.84 297.02C78.52 314.95 79.05 310.58 87.44 327.62C95.83 344.65 98.49 349.49 101.04 359.39C102.67 365.73 101.68 372.88 100.74 377.24Z" />
						</g>
						<g id="Group 1602">
							<path id="Path 4648" class="shp8" d="M110 391.07C110 391.07 113.73 385.51 111.54 364.74C109.36 343.98 103.39 324.12 106.73 301.48C110.08 278.83 134.77 221.4 134.9 217.61C135.03 213.83 141.44 283.7 128.7 311.54C115.95 339.38 114.33 348.98 114.7 363.47C115.06 377.96 114.23 389.66 112.83 393.06L110 391.07Z" />
							<path id="Path 4649" class="shp9" d="M112.81 349.16C114.13 358.41 114.7 381.67 112.33 387.3C112.1 387.82 111.8 387.53 111.43 386.58C112.18 382.71 112.72 375.96 111.54 364.74C109.36 343.98 103.39 324.12 106.73 301.48C110.08 278.83 134.77 221.4 134.9 217.61C134.9 217.61 130.68 265.13 118.1 298.03C109.09 321.58 111.49 339.9 112.81 349.16Z" />
						</g>
						<g id="Group 1603">
							<path id="Path 4650" class="shp10" d="M123.37 386.67C123.37 386.67 112.56 356.87 130.63 331.17C148.7 305.47 177.63 272.5 178.16 259.4C178.16 259.4 185.84 321.65 162.27 339.18C138.69 356.7 122.12 359.45 126.31 386.57L123.37 386.67Z" />
							<path id="Path 4651" class="shp11" d="M148.68 326.62C122.4 347.85 120.33 372.43 124.46 383.84C124.78 384.73 125.38 385.27 126.18 385.57C122.55 359.39 138.98 356.48 162.27 339.18C185.84 321.65 178.16 259.4 178.16 259.4C178.16 259.4 174.97 305.38 148.68 326.62Z" />
						</g>
						<g id="Group 1604">
							<path id="Path 4652" class="shp12" d="M91.05 393.92L85.11 372.42C62.97 293.89 1 291.27 1 291.27C7.48 292.57 41.1 318.2 46.31 341.01C48.76 351.73 59.7 359.34 69.37 364.37C76.34 368.01 81.49 374.42 83.65 381.98C85.5 388.45 86.47 394.19 86.47 394.19L91.05 393.92Z" />
							<path id="Path 4653" class="shp13" d="M57.36 342.1C64.6 356 73.93 361.65 82.3 363.55C58.18 293.73 1 291.27 1 291.27C2.28 291.53 4.64 292.77 7.62 294.71C19.53 301.37 44.56 317.56 57.36 342.1Z" />
						</g>
						<g id="Group 1605">
							<path id="Path 4654" class="shp14" d="M137.79 375.06L73.02 375.06C65.29 375.06 59.43 382.05 60.79 389.66L72.41 455.24C73.23 459.86 77.25 463.23 81.93 463.23L128.88 463.23C133.57 463.23 137.58 459.86 138.4 455.24L150.03 389.66C151.38 382.05 145.52 375.06 137.79 375.06Z" />
							<path id="Path 4655" class="shp14" d="M149.75 384.11C148.29 378.97 143.57 375.06 137.79 375.06L73.02 375.06C67.24 375.06 62.52 378.97 61.06 384.11L149.75 384.11Z" />
							<path id="Path 4656" class="shp15" d="M137.79 375.06L121.27 375.06C129 375.06 134.85 382.05 133.5 389.66L121.87 455.24C121.05 459.86 117.04 463.23 112.35 463.23L128.88 463.23C133.57 463.23 137.58 459.86 138.4 455.24L150.03 389.66C151.38 382.05 145.52 375.06 137.79 375.06Z" />
						</g>
					</g>
					<g id="Group 1628">
						<g id="Group 1614">
							<g id="Group 1609">
								<path id="Path 4657" class="shp16" d="M559.3 157.96C564.87 158.92 591.4 163.45 596.59 167.06C601.04 170.16 622.63 233.3 618.08 236.59C613.53 239.88 586.47 242.91 586.47 242.91L589.51 265.7L558.55 272.75C551.12 274.44 543.42 274.61 535.92 273.24L509.87 268.49L515.18 202.71L480.5 222.63C477.98 223.94 474.86 223 473.5 220.51L436.56 156.63L447 151.7L478.77 189.82L509.36 165.55C509.36 165.55 516.25 160.74 541.6 158.59L559.3 157.96Z" />
								<path id="Path 4658" class="shp17" d="M446.22 152.38C446.22 152.38 440.85 141.37 438.93 140.83C437.01 140.28 438.77 145.26 438.77 145.26C438.77 145.26 432.08 140.14 426.8 140.87C421.51 141.59 436.55 151.11 438.03 156.23C438.03 156.23 446.55 152.41 446.22 152.38Z" />
								<g id="Group 1608">
									<g id="Group 1607">
										<path id="Rectangle 60" class="shp2" d="M532.61 234.7L473.13 234.7C471.38 234.7 469.97 233.29 469.97 231.54L469.97 194.39C469.97 192.64 471.38 191.23 473.13 191.23L532.61 191.23C534.36 191.23 535.78 192.64 535.78 194.39L535.78 231.54C535.78 233.29 534.36 234.7 532.61 234.7Z" />
										<path id="Path 4659" class="shp2" d="M504.98 234.7L551.57 234.7C554.08 234.7 556.12 232.67 556.12 230.15L556.12 230.65C556.12 228.14 554.08 226.1 551.57 226.1L504.98 226.1C502.47 226.1 500.43 228.14 500.43 230.65L500.43 230.15C500.43 232.67 502.47 234.7 504.98 234.7Z" />
										<path id="Path 4660" class="shp18" d="M541.1 226.1L541.1 229.33C541.1 232.28 538.71 234.68 535.76 234.7L530.44 234.7C533.39 234.68 535.78 232.28 535.78 229.33L535.78 226.1L541.1 226.1Z" />
									</g>
									<path id="Path 4661" class="shp18" d="M492.77 215.63C492.77 211.48 496.13 208.12 500.28 208.12C504.43 208.12 507.79 211.48 507.79 215.63C507.79 219.77 504.43 223.14 500.28 223.14C496.13 223.14 492.77 219.77 492.77 215.63Z" />
								</g>
								<path id="Path 4662" class="shp19" d="M585.27 213.88L578.99 186.8L591.07 218.36C592.17 221.09 590.49 224.14 587.59 224.67L556 231.84L580.72 222.18C584.19 221.04 586.18 217.41 585.27 213.88Z" />
								<path id="Path 4663" class="shp16" d="M586.04 243.06L549.11 246.27L548.6 233.58L587.59 224.68L586.04 243.06Z" />
								<path id="Path 4664" class="shp19" d="M571.73 248.52C572.6 248.91 573.63 259.53 574.4 269.19L589.07 265.85L586.04 243.06L549.11 246.27C549.11 246.27 570.14 247.79 571.73 248.52Z" />
								<path id="Path 4665" class="shp17" d="M549.02 243.19C549.02 243.19 542.53 245.3 534.43 237.17C533.56 236.3 534.17 234.81 535.4 234.8L548.51 234.7L549.02 243.19Z" />
							</g>
							<g id="Group 1611">
								<g id="Group 1610">
									<path id="Path 4666" class="shp14" d="M586.51 446.54L568.23 446.26C564.74 433.65 547.3 300.69 547.3 300.69L524.55 349.23L535.71 446.21L518.63 446.31C518.63 446.31 491.81 362.49 491.81 345.05C491.81 331.75 505.21 288.75 511.59 269.02L512.1 268.89L535.93 273.23C543.42 274.61 551.11 274.44 558.55 272.75L586.42 266.41L586.47 266.44C589.24 302.84 586.51 446.54 586.51 446.54Z" />
									<path id="Path 4667" class="shp20" d="M586.51 446.54C586.51 446.53 587.83 380.91 587.75 327.73L587.75 327.59C587.75 326.43 587.75 325.27 587.74 324.12C587.74 323.64 587.74 323.17 587.74 322.69C587.74 321.98 587.73 321.27 587.73 320.57C587.64 297.5 587.29 277.28 586.47 266.44L574.4 269.19L574.4 269.19L580.09 446.26L586.28 446.52L586.51 446.54Z" />
									<path id="Path 4668" class="shp21" d="M531.03 446.37L535.71 446.21L524.55 349.23L547.3 300.69L514.01 348.09L531.03 446.37Z" />
								</g>
								<path id="Path 4669" class="shp22" d="M520.03 446.23C515.94 454.43 496.8 458.42 496.8 458.42C496.8 458.42 495.4 460.84 497.55 463.93C499.71 467.02 519.82 465.31 522.35 464.78C524.87 464.24 526.62 462.21 526.62 462.21C526.62 462.21 528.3 464.06 529.24 464.52C530.18 464.99 535.32 464 535.32 464C536.56 460.74 535.46 448.23 535.13 446.23L520.03 446.23Z" />
								<path id="Path 4670" class="shp22" d="M569.37 446.23C565.28 454.43 546.14 458.42 546.14 458.42C546.14 458.42 544.74 460.84 546.89 463.93C549.05 467.02 569.16 465.31 571.69 464.78C574.21 464.24 575.96 462.21 575.96 462.21C575.96 462.21 577.64 464.06 578.58 464.52C579.52 464.99 584.66 464 584.66 464C585.9 460.74 584.8 448.23 584.47 446.23L569.37 446.23Z" />
							</g>
							<g id="Group 1613">
								<g id="Group 1612">
									<path id="Path 4671" class="shp17" d="M557.07 142.48L557.07 157.8L548.05 164.25L541.96 158.39L542.11 152.11C542.87 152.27 543.65 152.34 544.45 152.34C550.33 152.34 555.27 148.15 556.69 142.46C556.82 142.48 556.94 142.48 557.07 142.48Z" />
									<path id="Path 4672" class="shp17" d="M560.71 132.6C558.93 130.69 556.86 132.23 556.86 132.23C556.86 132.23 556.84 132.26 556.78 132.32C551.49 131.07 544.12 125.45 544.12 125.45C539.14 128.46 531.8 131.17 531.8 131.17L531.8 139.11C531.8 146.42 537.46 152.35 544.45 152.35C550.33 152.35 555.27 148.15 556.69 142.45C561.04 143.05 562.47 134.48 560.71 132.6Z" />
									<path id="Path 4673" class="shp23" d="M557.09 148.46L557.07 148.45L557.07 142.48C561.12 142.56 562.42 134.43 560.71 132.6C558.93 130.69 556.86 132.23 556.86 132.23C556.86 132.23 556.83 132.27 556.78 132.32C551.49 131.06 544.15 128.17 544.15 128.17C537.77 131.93 531.8 131.17 531.8 131.17C529.95 130.72 522.75 128.32 523.04 119C523.33 109.58 548.65 98.6 562.66 113.96C568.14 119.95 571.36 145.97 557.09 148.46Z" />
								</g>
								<path id="Path 4674" class="shp24" d="M544.45 152.34C543.65 152.34 542.87 152.24 542.1 152.09L541.96 158.39L545.88 162.17L545.88 154.78C555.99 154.78 556.69 142.46 556.69 142.46C555.27 148.15 550.33 152.34 544.45 152.34Z" />
								<path id="Path 4675" fill-rule="evenodd" class="shp23" d="M557.74 142.38L557.74 142.39C557.41 142.47 557.06 142.51 556.69 142.46C555.27 148.15 550.33 152.34 544.45 152.34C538.73 152.34 533.91 148.38 532.33 142.94C532.77 143.94 533.28 144.78 533.83 145.51L536.03 143.43C536.53 142.96 537.17 142.66 537.85 142.58C539.5 142.38 542.7 142.08 544.83 142.49C547.09 142.93 549.51 145.75 550.55 147.09C554.85 142.77 554.75 134.78 554.5 131.57C555.28 131.89 556.06 132.15 556.78 132.32C556.83 132.27 556.86 132.23 556.86 132.23L557.74 142.38ZM546.67 146.08C545.88 145.24 544.79 144.01 543.35 144.01C541.99 144.01 538.73 143.61 537.72 144.71L536.83 145.68C536.58 145.95 536.56 146.36 536.78 146.64C537.76 147.87 541.39 149.83 546.64 147.39C547.05 147.2 547 146.43 546.67 146.08Z" />
							</g>
						</g>
						<g id="Group 1617">
							<path id="Path 4676" class="shp14" d="M417.3 446.21C415.04 379.19 406.19 256.45 406.19 256.45L339.36 256.45C339.36 256.45 330.51 379.19 328.25 446.21L347.27 446.21C347.27 446.21 368.86 302.05 373.05 288.86C377.24 302.05 398.29 446.21 398.29 446.21L417.3 446.21Z" />
							<path id="Path 4677" class="shp21" d="M417.3 446.21L411.35 446.21L391.92 256.45L406.19 256.45C406.19 256.45 415.04 379.2 417.3 446.21Z" />
							<path id="Path 4679" class="shp25" d="M330.38 446.23C326.29 454.43 307.15 458.42 307.15 458.42C307.15 458.42 305.75 460.84 307.91 463.93C310.06 467.02 330.18 465.31 332.7 464.78C335.23 464.24 336.98 462.21 336.98 462.21C336.98 462.21 338.65 464.06 339.59 464.52C340.53 464.99 345.67 464 345.67 464C346.91 460.74 345.82 448.23 345.49 446.23L330.38 446.23Z" />
							<path id="Path 4680" class="shp25" d="M414.88 446.23C418.97 454.43 438.11 458.42 438.11 458.42C438.11 458.42 439.51 460.84 437.36 463.93C435.2 467.02 415.09 465.31 412.56 464.78C410.04 464.24 408.29 462.21 408.29 462.21C408.29 462.21 406.61 464.06 405.67 464.52C404.73 464.99 399.59 464 399.59 464C398.35 460.74 399.45 448.23 399.78 446.23L414.88 446.23Z" />
							<g id="Group 1615">
								<path id="Path 4681" class="shp2" d="M386.82 150.27L382.29 148.96L375.25 148.96L373.33 148.96L366.3 148.96L361.76 150.27L350.47 256.07L373.33 256.07L375.25 256.07L398.11 256.07L386.82 150.27Z" />
								<path id="Path 4682" class="shp22" d="M361.76 150.27C361.76 150.27 333.71 158.09 329.2 164.58C324.97 170.66 308.79 203.86 309.87 223.63C309.99 225.78 311.89 227.37 314.02 227.09L335.41 222.38L327.69 265.02C327.69 265.02 349.71 269.44 362.14 268.69L361.76 150.27Z" />
								<path id="Path 4683" class="shp22" d="M386.82 150.27C386.82 150.27 414.87 158.09 419.39 164.58C423.61 170.66 440.22 202.54 439.14 222.31C439.03 224.45 437.12 226.05 434.99 225.77L413.17 222.38L420.89 265.02C420.89 265.02 399.04 270 386.61 269.25L386.82 150.27Z" />
								<path id="Path 4684" class="shp26" d="M382.22 159.92L374.38 155.55L367.1 159.92L371.74 166.34C371.74 166.34 367.3 231.94 367.13 238.94C367.1 240 369.88 243.43 372.4 246.33C373.1 247.13 373.78 247.89 374.38 248.55C374.97 247.89 375.65 247.13 376.35 246.33C378.88 243.43 381.65 240 381.63 238.94C381.45 231.94 377.51 166.59 377.51 166.59L382.22 159.92Z" />
								<path id="Path 4685" class="shp22" d="M335.41 222.38L401.49 211.27L397.91 195.93L322.51 203.27L335.41 222.38Z" />
								<path id="Path 4686" class="shp17" d="M400.48 209.64C400.48 209.64 410.15 206.5 413.41 207C416.67 207.51 415.17 196.27 397.91 195.93L400.48 209.64Z" />
								<path id="Path 4687" class="shp17" d="M357.79 199.63C357.79 199.63 352.24 193.89 343.58 194.64C338.79 195.06 335.2 201.8 335.2 201.8L357.79 199.63Z" />
								<path id="Path 4688" class="shp20" d="M332.49 238.49L361.88 217.95L335.41 222.38L332.49 238.49Z" />
								<path id="Path 4689" class="shp20" d="M335.2 201.8L329.9 201.66L340.63 185.27L335.2 201.8Z" />
								<path id="Path 4690" class="shp20" d="M413.62 207.05C413.62 207.05 419.1 207.17 419.68 206.29C420.26 205.42 412.79 187.09 412.79 187.09C412.79 187.09 418.3 205.49 413.62 207.05Z" />
								<path id="Path 4691" class="shp20" d="M420.89 265.02L416.52 240.86L416.52 240.86L413.17 222.38L386.7 217.77L386.7 219.26L406.14 233.34L411.89 266.82C417.15 265.87 420.89 265.02 420.89 265.02Z" />
							</g>
							<path id="Path 4692" class="shp21" d="M372.91 288.83L372.91 288.83C369.21 291.92 366.72 296.23 365.9 300.97L340.59 446.21L347.27 446.21C347.27 446.21 365.07 324.95 372.91 288.83Z" />
							<g id="Group 1616">
								<path id="Path 4693" class="shp17" d="M381.33 148.35L374.65 152.42L367.53 148.35L367.53 135.01L381.33 135.01L381.33 148.35Z" />
								<path id="Path 4694" class="shp23" d="M356.86 124.28C356.86 124.28 354.1 113.95 356.94 108.74C359.79 103.54 364.63 97.75 369.34 101.01C369.34 101.01 372.18 97.28 382.18 99.72C392.19 102.16 397.12 102.23 400.7 100.36C404.28 98.49 401.54 116.87 394.14 117.93C394.14 117.93 393.54 122.73 392.08 124.44C390.61 126.15 372.72 127.04 372.72 127.04L356.86 124.28Z" />
								<path id="Path 4695" class="shp17" d="M371.26 110.86C370.74 110.28 369.73 112.79 367.33 114.87C364.5 117.33 360.71 118.93 360.71 118.93L360.71 128.88C360.71 128.88 362.77 142.41 374.96 142.41C385 142.41 388.6 128.94 388.6 128.94L388.6 120.39L388.6 117.28C388.6 117.28 376.63 116.85 371.26 110.86Z" />
								<path id="Path 4696" class="shp24" d="M381.33 140.3L381.33 143.04C379.58 144.31 377.47 145.15 374.95 145.15C371.88 145.15 369.45 144.29 367.53 143L367.53 140.26C369.45 141.55 371.88 142.41 374.95 142.41C377.47 142.41 379.58 141.57 381.33 140.3Z" />
								<path id="Path 4697" class="shp17" d="M366.48 125.48C366.48 122.79 364.31 120.62 361.62 120.62C358.93 120.62 356.76 122.79 356.76 125.48C356.76 128.17 359.7 131.15 362.39 131.15C365.08 131.15 366.48 128.17 366.48 125.48Z" />
								<path id="Path 4698" class="shp17" d="M383.96 125.48C383.96 122.79 386.14 120.62 388.83 120.62C391.51 120.62 393.69 122.79 393.69 125.48C393.69 128.17 390.74 131.15 388.06 131.15C385.37 131.15 383.96 128.17 383.96 125.48Z" />
							</g>
						</g>
						<g id="Group 1627">
							<g id="Group 1618">
								<path id="Path 4699" class="shp16" d="M202.76 449.66L202.76 460.64C202.76 463.45 200.71 465.73 198.19 465.73L164.97 465.73C163.18 465.73 162.49 463.15 163.99 462.07C168.38 458.92 182.91 454.39 187.51 451.25L202.76 449.66Z" />
								<path id="Path 4700" class="shp17" d="M211.91 340.17C209.72 369.52 203.87 446.23 202.36 450.53C200.5 455.85 185.81 453.01 186.74 451.47C187.06 450.94 189.85 450.62 191.79 446.4C192.4 445.1 192.19 437.01 192.08 435.59C191.15 422.58 186.4 355.69 185.06 335.53C192.06 337.52 201.47 339.57 211.91 340.17Z" />
							</g>
							<g id="Group 1619">
								<path id="Path 4701" class="shp16" d="M225.51 449.66L225.51 460.64C225.51 463.45 227.56 465.73 230.09 465.73L263.31 465.73C265.09 465.73 265.79 463.15 264.28 462.07C259.9 458.92 245.37 454.39 240.77 451.25L225.51 449.66Z" />
								<path id="Path 4702" class="shp17" d="M241.54 451.47C242.45 453.01 227.78 455.85 225.92 450.53C224.42 446.24 218.59 369.78 216.38 340.33C225 340.45 234.15 339.5 243.14 336.67C241.69 358.08 237.09 422.82 236.18 435.59C236.09 437.01 235.88 445.1 236.47 446.4C238.41 450.62 241.21 450.94 241.54 451.47Z" />
							</g>
							<path id="Path 4703" class="shp27" d="M178.9 247.3L179.15 247.66L177.63 250.88C178.06 249.58 178.5 248.38 178.9 247.3Z" />
							<path id="Path 4704" class="shp27" d="" />
							<g id="Group 1620">
								<path id="Path 4705" class="shp26" d="M255.75 331.28C218.96 351.66 172.67 331.28 172.67 331.28C165.77 295.2 172.38 266.27 177.6 250.93L177.63 250.88C178.06 249.58 178.5 248.38 178.9 247.3C180.7 242.5 182.13 239.62 182.46 239.01L182.48 239.01C184.48 240.32 209.12 255.75 242.7 239.01L243.34 239.01C243.34 239.01 243.33 238.98 243.31 238.94C243.28 238.89 243.25 238.84 243.21 238.75C243.2 238.73 243.2 238.71 243.19 238.69L243.41 238.69C260.63 282.36 255.75 331.28 255.75 331.28Z" />
								<path id="Path 4706" class="shp20" d="M255.75 331.28C249.1 334.95 242.15 337.29 235.21 338.68C244.18 314.57 236 260.55 233 243.07C236.13 242.01 239.37 240.67 242.7 239.01L243.34 239.01C243.34 239.01 243.33 238.98 243.31 238.94C243.28 238.89 243.25 238.84 243.21 238.75C243.2 238.73 243.2 238.71 243.19 238.69L243.41 238.69C260.63 282.36 255.75 331.28 255.75 331.28Z" />
							</g>
							<path id="Path 4707" class="shp24" d="M211.91 340.17C209.72 369.51 203.87 446.23 202.36 450.53C201.86 451.94 200.46 452.78 198.68 453.22C204.53 433.74 204 342.64 204 342.64C197.9 342.84 190.31 339.77 185.15 337.49C185.01 335.3 185.17 337.16 185.05 335.53C192.04 337.52 201.46 339.57 211.91 340.17Z" />
							<path id="Path 4708" class="shp24" d="M236.47 446.4C235.88 445.1 236.09 437.01 236.18 435.59C237.1 422.82 241.69 358.07 243.14 336.67C242.05 337.01 240.97 337.31 239.89 337.59C239.31 337.74 238.73 337.89 238.15 338.02C237.52 338.18 236.89 338.32 236.26 338.45C229.53 339.89 222.81 340.42 216.38 340.33C216.43 341.02 216.49 341.75 216.55 342.5C220.27 342.49 229.39 342.36 235.06 341.52C234.19 358.21 229.93 442.84 232.87 448.52C233.71 450.17 236.29 451.58 239.62 452.76C240.97 452.35 241.77 451.87 241.54 451.47C241.21 450.94 238.41 450.62 236.47 446.4Z" />
							<g id="Group 1624">
								<path id="Path 4709" class="shp17" d="M297.83 157.5C297.83 157.5 303.6 148.42 305.33 148.13C307.06 147.84 305.04 152.02 305.04 152.02C305.04 152.02 311.38 148.2 315.92 149.35C320.46 150.51 306.41 157.34 304.6 161.67C304.6 161.67 297.54 157.5 297.83 157.5Z" />
								<path id="Path 4710" class="shp17" d="M186.38 255.55C186.38 254.81 179.39 249.01 178.91 248.72C178.85 248.63 178.79 248.53 178.72 248.44L174.28 257.72C174.28 257.72 185.02 266.73 186.09 265.84C186.81 265.24 184.25 261.2 182.39 255.74C184.24 255.51 186.38 256.07 186.38 255.55Z" />
								<g id="Group 1623">
									<path id="Path 4711" class="shp16" d="M245.7 196.9C246.94 199.48 247.93 202.64 247.67 205.86C247.47 208.48 246.43 211.15 244.01 213.58C243.56 214.02 243.16 214.47 242.79 214.95C242.71 215.06 242.62 215.17 242.54 215.28C236.09 224.08 242.21 236.81 243.21 238.75C243.25 238.83 243.28 238.9 243.31 238.94C243.33 238.98 243.34 239 243.34 239L242.7 239C209.12 255.76 184.47 240.32 182.48 239L182.34 239C182.34 239 182.36 238.98 182.38 238.94C182.93 237.9 189.87 224.45 183.14 215.28C182.71 214.69 182.23 214.13 181.68 213.58C176.29 208.18 177.8 199.53 180.04 194.85L161.4 221.12L179.15 247.66L174 258.48C174 258.48 138.5 224.85 139.03 222.36C139.57 219.87 167.43 170.53 176.67 163.96C185.9 157.39 204.36 156.5 204.36 156.5L217.85 156.5C217.85 156.5 231.61 155.79 242.92 163.78L266.37 187.16L296.97 156.99L305.1 161.92C305.1 161.92 277.45 199.36 267.62 210.57C265.98 212.44 263.14 212.61 261.3 210.95L245.7 196.9Z" />
									<path id="Path 4712" class="shp28" d="M266.29 207.97C260.51 212.43 236.05 181.36 239.97 188.17C243.88 194.99 236.92 203.84 230.69 219.07C225.3 232.22 230.95 241.05 232.59 243.2C235.85 242.11 239.23 240.74 242.7 239L243.34 239C243.34 239 243.33 238.98 243.31 238.94C243.28 238.89 243.25 238.83 243.21 238.75C242.21 236.81 236.09 224.08 242.54 215.28C242.62 215.17 242.71 215.06 242.79 214.95C243.16 214.47 243.56 214.02 244.01 213.58C246.43 211.15 247.47 208.48 247.67 205.86C247.93 202.64 246.94 199.48 245.7 196.9L261.3 210.95C263.14 212.61 265.98 212.44 267.62 210.57C277.45 199.36 305.1 161.92 305.1 161.92C305.01 161.44 272.77 202.98 266.29 207.97Z" />
									<g id="Group 1621">
										<path id="Path 4713" class="shp28" d="M180.04 194.85C180.04 194.85 183.47 184.11 185.72 181.57C185.72 181.57 157.87 217.18 156.57 221.24C155.26 225.3 179.15 247.66 179.15 247.66L161.4 221.12L180.04 194.85Z" />
										<path id="Path 4714" class="shp28" d="M180.04 194.85C179.42 196.13 178.87 197.73 178.49 199.46L180.04 194.85Z" />
									</g>
									<g id="Group 1622" style="opacity: 0.251">
										<path id="Path 4715" class="shp2" d="M224.6 156.91L199.77 156.91C197 157.23 193.26 157.79 189.42 158.73L232.64 158.73C229.71 157.78 226.94 157.23 224.6 156.91Z" />
										<path id="Path 4716" class="shp2" d="M296.97 156.99L295.2 158.73L299.84 158.73L296.97 156.99Z" />
										<path id="Path 4717" class="shp2" d="M301.85 166.3L287.53 166.3L285.68 168.11L300.5 168.11C300.98 167.46 301.43 166.86 301.85 166.3Z" />
										<path id="Path 4718" class="shp2" d="M245.45 166.3L174.14 166.3C173.63 166.85 173.1 167.44 172.54 168.11L247.27 168.11L245.45 166.3Z" />
										<path id="Path 4719" class="shp2" d="M294.84 175.68L278.01 175.68L276.16 177.5L293.47 177.5C293.94 176.88 294.39 176.28 294.84 175.68Z" />
										<path id="Path 4720" class="shp2" d="M254.86 175.68L166.84 175.68C166.43 176.27 166.01 176.88 165.59 177.5L256.68 177.5L254.86 175.68Z" />
										<path id="Path 4721" class="shp2" d="M264.27 185.07L160.59 185.07C160.2 185.67 159.82 186.27 159.43 186.88L266.09 186.88L264.27 185.07Z" />
										<path id="Path 4722" class="shp2" d="M287.75 185.07L268.49 185.07L266.65 186.88L286.37 186.88C286.83 186.28 287.29 185.67 287.75 185.07Z" />
										<path id="Path 4723" class="shp2" d="M180.04 194.85C179.83 195.28 179.63 195.77 179.44 196.27L279.16 196.27C279.62 195.67 280.1 195.06 280.57 194.45L154.74 194.45C154.36 195.06 154 195.66 153.64 196.27L179.03 196.27L180.04 194.85Z" />
										<path id="Path 4724" class="shp2" d="M173.66 203.83L149.14 203.83C148.78 204.45 148.43 205.05 148.09 205.65L172.37 205.65L173.66 203.83Z" />
										<path id="Path 4725" class="shp2" d="M255.42 205.65L271.74 205.65C272.21 205.07 272.7 204.46 273.2 203.83L253.4 203.83L255.42 205.65Z" />
										<path id="Path 4726" class="shp2" d="M178.1 205.65L247.68 205.65C247.72 205.04 247.71 204.44 247.67 203.83L178 203.83C178 204.44 178.03 205.04 178.1 205.65Z" />
										<path id="Path 4727" class="shp2" d="M167 213.22L143.78 213.22C143.43 213.85 143.09 214.45 142.78 215.04L165.71 215.04L167 213.22Z" />
										<path id="Path 4728" class="shp2" d="M181.68 213.58C182.15 214.05 182.57 214.53 182.95 215.04L242.73 215.04C242.75 215.01 242.77 214.98 242.79 214.95C243.16 214.47 243.56 214.02 244.01 213.58C244.12 213.46 244.22 213.34 244.33 213.22L181.36 213.22C181.47 213.34 181.56 213.46 181.68 213.58Z" />
										<path id="Path 4729" class="shp2" d="M162.39 222.6L139.07 222.6C139.18 222.97 139.58 223.59 140.22 224.42L163.61 224.42L162.39 222.6Z" />
										<path id="Path 4730" class="shp2" d="M186.05 224.42L239.64 224.42C239.65 223.82 239.7 223.21 239.77 222.6L185.93 222.6C186 223.21 186.03 223.82 186.05 224.42Z" />
										<path id="Path 4731" class="shp2" d="M184.51 233.8L241.18 233.8C240.99 233.23 240.81 232.62 240.64 231.99L185.05 231.99C184.88 232.62 184.7 233.23 184.51 233.8Z" />
										<path id="Path 4732" class="shp2" d="M168.67 231.99L147.05 231.99C147.62 232.58 148.2 233.19 148.81 233.8L169.88 233.8L168.67 231.99Z" />
										<path id="Path 4733" class="shp2" d="M191.19 243.19L232.64 243.19C234.22 242.65 235.84 242.05 237.47 241.37L186.81 241.37C188.04 241.95 189.51 242.57 191.19 243.19Z" />
										<path id="Path 4734" class="shp2" d="M174.95 241.37L156.33 241.37C156.95 241.98 157.56 242.59 158.17 243.19L176.16 243.19L174.95 241.37Z" />
										<path id="Path 4735" class="shp2" d="M177.68 250.76L165.94 250.76C166.6 251.39 167.22 251.99 167.82 252.57L176.81 252.57L177.68 250.76Z" />
									</g>
								</g>
							</g>
							<g id="Group 1626">
								<g id="Group 1625">
									<path id="Path 4736" class="shp17" d="M216.86 157.17L210.64 160.95L204.02 157.17L204.02 144.76L216.86 144.76L216.86 157.17Z" />
									<path id="Path 4737" class="shp17" d="M216.85 149.68L216.85 157.17L215.32 158.1C215.37 157.78 215.43 157.47 215.48 157.17C216.09 153.75 216.61 151.08 216.85 149.68Z" />
									<path id="Path 4738" class="shp17" d="M223.62 129.72L223.62 139.12C223.62 139.12 221.73 146.16 216.85 149.68C217.56 145.7 222.79 133.99 223.62 129.72Z" />
									<path id="Path 4739" class="shp24" d="M216.85 149.69L216.85 152.23C215.23 153.41 213.26 154.19 210.93 154.19C208.06 154.19 205.8 153.39 204.02 152.19L204.02 149.64C205.8 150.85 208.06 151.65 210.93 151.65C213.26 151.65 215.23 150.86 216.85 149.69Z" />
									<path id="Path 4740" class="shp17" d="M223.82 131.38C223.75 131.38 223.69 131.39 223.62 131.4L223.62 131.16L223.62 128.28C223.62 128.28 205.69 129.4 202.45 122.2C202.15 121.54 197.68 129.8 197.68 129.8L197.68 131.46C195.59 131.86 194 133.69 194 135.9C194 138.03 196 140.35 198.14 140.99C199.2 144.51 202.39 151.65 210.93 151.65C217.89 151.65 221.52 144.69 222.92 141.14C222.98 141.15 223.04 141.17 223.11 141.17C225.61 141.17 228.35 138.4 228.35 135.9C228.35 133.4 226.32 131.38 223.82 131.38Z" />
								</g>
								<path id="Path 4741" class="shp23" d="M222.88 141.23C222.9 141.21 223.04 141.17 223.1 141.17C225.61 141.17 228.34 138.39 228.34 135.9C228.34 133.4 226.32 131.38 223.82 131.38C223.76 131.38 223.69 131.39 223.61 131.39L223.61 128.28C223.61 128.28 205.69 129.4 202.44 122.2C202.16 121.54 197.67 129.8 197.67 129.8L197.67 131.46C195.59 131.86 194 133.69 194 135.9C194 138.03 196.01 140.35 198.14 140.99C198.85 143.33 200.49 147.26 204.02 149.64L204.02 154.88C182.46 141.91 184.95 113.66 195.73 108.33C200.57 105.95 202.91 107.89 202.91 107.89C219.81 93.03 233.52 110.5 237.65 117.17C243.3 126.31 266.15 186.14 242.43 194.19C199.03 208.93 212.69 153.98 216.85 149.7C220.42 146.02 222.5 142.79 222.88 141.23Z" />
							</g>
						</g>
					</g>
				</g>
			</g>
		</g>
	</g>
</svg>